<svg width="176" height="146" viewBox="0 0 176 146" fill="none" xmlns="http://www.w3.org/2000/svg">
<path opacity="0.3" d="M120.884 44.241C103.923 54.558 102.021 76.6786 102.697 90.686C115.597 75.522 131.493 67.4866 140.57 65.9714C125.975 71.6892 114.978 83.0737 105.832 95.6434C102.142 102.111 98.7463 108.439 96.8197 115.424C94.7144 107.245 91.1216 99.5974 87.2456 91.7825C76.359 74.8188 62.9787 59.2522 44.5199 50.7487C56.1533 53.3951 76.1278 64.9965 91.6774 85.6016C93.6148 67.5218 92.8167 38.7401 71.6447 24.1079C48.35 8.01028 18.9454 2.51794 4.4236 0.709411C1.1238 0.298769 -1.16986 3.91968 0.63288 6.71428C5.38769 14.0858 11.8453 27.2105 12.7978 45.1352C13.746 63.0502 14.8456 96.1533 78.8124 101.099C88.3139 118.463 92.9931 127.72 94.7228 144.313C94.8541 145.572 96.6333 145.69 96.9347 144.461C98.1122 139.656 101.209 115.492 111.907 103.196C161.383 102.262 163.714 76.8237 165.253 63.0734C166.66 50.4573 171.452 41.1577 175.315 35.4897C177.164 32.7773 175.033 29.1271 171.76 29.3876C159.962 30.327 138.533 33.5091 120.884 44.241Z" fill="#FBEEE7"/>
</svg>
